<?xml version="1.0" encoding="utf-8"?>
<!-- Generator: Adobe Illustrator 16.0.0, SVG Export Plug-In . SVG Version: 6.00 Build 0)  -->
<!DOCTYPE svg PUBLIC "-//W3C//DTD SVG 1.1//EN" "http://www.w3.org/Graphics/SVG/1.1/DTD/svg11.dtd">
<svg version="1.1" id="Ebene_1" xmlns="http://www.w3.org/2000/svg" xmlns:xlink="http://www.w3.org/1999/xlink" x="0px" y="0px"
	 width="1233px" height="315.333px" viewBox="0 0 1233 315.333" enable-background="new 0 0 1233 315.333" xml:space="preserve">
<g>
	<g>
		<path fill="#9FC43C" d="M320.658,12.984c-76.798,99.349-66.629,160.557-96.955,215.42
			c-45.289,81.885-108.033,84.27-157.762,58.593c-13.292-6.856-24.001-14.821-32.438-23.635
			C136.05,112.247,225.268,47.456,320.658,12.984"/>
		<path fill="#9FC43C" d="M319.501,9.02c-96.032,34.634-185.8,99.73-288.932,251.972C0.945,226.922,3.934,180.643,29.162,132.58
			C64.129,65.963,175.625,31.153,319.501,9.02"/>
	</g>
	<g>
		<path fill="#FFFFFF" d="M60.624,248.108V77.022h13.478v77.406c13.477-12.709,28.692-19.063,45.656-19.063
			c16.5,0,30.023,5.321,40.569,15.95c10.542,10.635,15.814,24.339,15.814,41.119c0,19.494-6.441,35.103-19.323,46.839
			c-12.879,11.736-30.001,17.608-51.363,17.608C91.427,256.882,76.483,253.957,60.624,248.108z M74.102,168.411v70.802
			c10.451,3.641,20.808,5.466,31.079,5.466c16.318,0,29.819-4.855,40.5-14.556c10.678-9.701,16.021-22.01,16.021-36.928
			c0-13.809-4.126-25.161-12.376-34.063c-8.25-8.896-18.66-13.341-31.218-13.341C103.069,145.791,88.404,153.334,74.102,168.411z"/>
		<path fill="#FFFFFF" d="M305.273,234.253v10.425c-11.645,8.134-20.17,12.203-25.578,12.203c-3.118,0-5.273-0.957-6.464-2.864
			c-1.191-1.907-2.062-5.782-2.612-11.631c-13.296,9.663-26.496,14.495-39.607,14.495c-9.535,0-17.6-2.887-24.204-8.646
			c-6.599-5.758-9.9-12.753-9.9-20.97c0-12.716,6.373-22.733,19.116-30.06c12.743-7.334,30.942-11.549,54.596-12.649v-14.873
			c0-15.927-9.351-23.894-28.056-23.894c-11.917,0-24.799,4.952-38.642,14.871v-12.836c14.302-8.306,27.916-12.46,40.843-12.46
			c11.458,0,20.903,2.608,28.331,7.816c7.425,5.216,11.137,12.776,11.137,22.689V238.7c0,3.988,1.006,5.979,3.026,5.979
			C289.826,244.679,295.83,241.203,305.273,234.253z M270.619,231.456v-36.475c-17.33-0.595-31.7,2.225-43.112,8.45
			c-11.417,6.227-17.123,14.171-17.123,23.834c0,5.42,2.382,9.996,7.149,13.727c4.768,3.73,10.727,5.593,17.88,5.593
			C246.965,246.585,258.699,241.542,270.619,231.456z"/>
		<path fill="#FFFFFF" d="M433.438,77.022V254.59h-13.612v-9.15c-11.552,7.628-24.023,11.442-37.407,11.442
			c-17.97,0-33.121-5.872-45.449-17.608c-12.332-11.736-18.498-26.165-18.498-43.282c0-17.366,6.071-31.817,18.222-43.342
			c12.147-11.518,27.389-17.284,45.724-17.284c11.642,0,24.109,3.136,37.407,9.407v-67.75H433.438z M419.826,233.998v-75.499
			c-12.103-7.29-24.389-10.93-36.856-10.93c-14.578,0-26.589,4.469-36.03,13.409c-9.445,8.939-14.164,20.36-14.164,34.251
			c0,14.157,5.039,25.931,15.125,35.338c10.085,9.407,22.691,14.111,37.821,14.111C397.454,244.679,408.825,241.12,419.826,233.998z
			"/>
		<path fill="#FFFFFF" d="M527.918,189.766v12.203H461.22v-12.203H527.918z"/>
		<path fill="#FFFFFF" d="M580.863,98.889v38.768h35.48v10.168h-35.48v69.52c0,11.187,0.984,18.544,2.955,22.056
			c1.971,3.52,7.267,5.277,15.886,5.277c6.599,0,14.3-1.907,23.103-5.722v11.948c-8.895,3.979-17.604,5.978-26.129,5.978
			c-8.344,0-15.313-2.208-20.902-6.61c-5.594-4.41-8.39-10.508-8.39-18.303v-84.144h-34.104v-10.168h34.104v-27.837l9.215-10.93
			H580.863z"/>
		<path fill="#FFFFFF" d="M728.695,149.22l-7.84,11.691c-10.545-8.895-19.026-13.341-25.44-13.341
			c-12.653,0-26.174,11.186-40.568,33.558v73.462H641.37V137.657h13.477v30.754h0.551c15.124-22.025,29.887-33.045,44.28-33.045
			C707.928,135.365,717.598,139.986,728.695,149.22z"/>
		<path fill="#FFFFFF" d="M842.696,191.801h-99.695c-0.278,2.036-0.421,4.07-0.421,6.097c0,13.057,5.049,24.114,15.135,33.175
			c10.086,9.068,21.996,13.606,35.752,13.606c16.041,0,31.719-5.805,47.027-17.413v14.103
			c-14.487,10.342-30.708,15.513-48.678,15.513c-18.242,0-33.333-5.849-45.242-17.541c-11.925-11.697-17.879-26.569-17.879-44.616
			c0-17.118,5.503-31.289,16.508-42.521c10.997-11.224,24.836-16.839,41.525-16.839c15.678,0,28.922,5.065,39.746,15.188
			C837.285,160.685,842.696,174.433,842.696,191.801z M744.781,181.76h81.965c-4.765-22.794-18.106-34.191-40.018-34.191
			c-10.365,0-19.32,2.984-26.887,8.962C752.279,162.501,747.261,170.913,744.781,181.76z"/>
		<path fill="#FFFFFF" d="M883.264,137.657v20.337h0.559c10.537-15.083,24.423-22.628,41.67-22.628
			c14.291,0,25.711,4.236,34.234,12.709c8.527,8.479,12.793,20.209,12.793,35.208v71.308h-13.478v-66.603
			c0-26.948-11.465-40.418-34.379-40.418c-16.78,0-30.574,8.344-41.399,25.04v81.981h-13.477V137.657H883.264z"/>
		<path fill="#FFFFFF" d="M1116.914,77.022V254.59h-13.613v-9.15c-11.557,7.628-24.023,11.442-37.41,11.442
			c-17.971,0-33.121-5.872-45.447-17.608c-12.33-11.736-18.496-26.165-18.496-43.282c0-17.366,6.067-31.817,18.217-43.342
			c12.153-11.518,27.395-17.284,45.727-17.284c11.646,0,24.111,3.136,37.41,9.407v-67.75H1116.914z M1103.301,233.998v-75.499
			c-12.098-7.29-24.387-10.93-36.853-10.93c-14.579,0-26.594,4.469-36.031,13.409c-9.453,8.939-14.171,20.36-14.171,34.251
			c0,14.157,5.043,25.931,15.129,35.338c10.085,9.407,22.695,14.111,37.816,14.111
			C1080.929,244.679,1092.303,241.12,1103.301,233.998z"/>
		<path fill="#FFFFFF" d="M1221.017,145.277v13.478c-12.843-7.967-24.392-11.948-34.658-11.948c-7.614,0-14.026,1.899-19.252,5.699
			c-5.229,3.806-7.839,8.495-7.839,14.074c0,3.971,1.584,7.628,4.765,10.959c3.181,3.339,11.939,7.568,26.27,12.686
			c14.328,5.118,23.697,10.433,28.101,15.935c4.395,5.509,6.595,11.653,6.595,18.43c0,9.076-3.98,16.719-11.954,22.945
			c-7.983,6.226-17.836,9.347-29.569,9.347c-12.748,0-25.396-3.566-37.954-10.681v-12.204c14.94,7.123,28.189,10.681,39.739,10.681
			c7.793,0,14.187-1.907,19.184-5.722c4.997-3.806,7.501-8.676,7.501-14.608c0-4.063-1.629-7.809-4.894-11.24
			c-3.256-3.43-12.054-7.778-26.405-13.04c-14.344-5.254-23.646-10.446-27.904-15.581c-4.266-5.125-6.399-10.824-6.399-17.095
			c0-8.895,3.966-16.455,11.894-22.689c7.932-6.226,17.578-9.339,28.954-9.339C1197.545,135.365,1208.821,138.674,1221.017,145.277z
			"/>
	</g>
</g>
</svg>
